<?xml version="1.0" standalone="no"?>
<!DOCTYPE svg PUBLIC "-//W3C//DTD SVG 20010904//EN"
 "http://www.w3.org/TR/2001/REC-SVG-20010904/DTD/svg10.dtd">
<svg version="1.0" xmlns="http://www.w3.org/2000/svg"
 width="700.000000pt" height="700.000000pt" viewBox="0 0 700.000000 700.000000"
 preserveAspectRatio="xMidYMid meet">
<metadata>
Created by potrace 1.14, written by Peter Selinger 2001-2017
</metadata>
<g transform="translate(0.000000,700.000000) scale(0.100000,-0.100000)"
fill="#000000" stroke="none">
<path d="M3450 6238 c-83 -12 -224 -59 -293 -98 -39 -22 -644 -496 -807 -633
-9 -7 -274 -220 -590 -472 -316 -253 -580 -464 -586 -470 -6 -5 -28 -23 -50
-40 -61 -48 -112 -105 -165 -182 -27 -40 -49 -74 -49 -77 0 -2 -13 -33 -29
-68 -26 -58 -55 -136 -54 -148 0 -3 -3 -14 -7 -26 -22 -58 -31 -249 -16 -334
4 -25 9 -54 11 -65 1 -11 17 -105 35 -210 18 -104 34 -203 37 -220 2 -16 22
-136 44 -265 22 -129 42 -251 45 -270 53 -333 208 -1239 220 -1280 74 -258
305 -491 579 -585 124 -42 106 -42 1835 -40 910 1 1669 5 1685 9 69 15 173 50
220 73 284 143 467 395 510 706 3 27 8 57 10 66 6 30 56 331 60 359 2 15 22
135 45 267 22 132 43 256 46 275 3 19 9 58 14 85 5 28 12 66 14 85 3 19 8 46
10 60 2 14 10 59 16 100 7 41 14 84 16 95 2 11 9 47 14 80 6 33 12 71 14 85 3
14 7 41 10 60 3 19 8 46 10 60 8 43 25 143 30 180 3 19 17 103 31 185 39 224
35 337 -22 510 -50 157 -138 301 -236 391 -30 27 -128 107 -218 179 -179 142
-196 155 -213 170 -11 10 -117 95 -376 301 -69 54 -132 105 -140 111 -144 120
-1060 846 -1099 871 -159 102 -401 150 -611 120z m307 -2103 c406 -33 857
-248 1163 -556 71 -71 89 -162 49 -241 -24 -47 -47 -70 -103 -99 -33 -18 -52
-20 -103 -16 -66 5 -85 15 -168 91 -60 55 -212 167 -280 207 -225 132 -473
202 -715 202 -79 1 -208 -9 -231 -17 -8 -3 -30 -7 -49 -10 -60 -9 -198 -54
-288 -94 -158 -70 -313 -172 -442 -292 -74 -68 -120 -91 -184 -91 -61 0 -91
10 -135 46 -46 40 -72 97 -72 160 0 94 40 147 222 293 307 245 668 392 1029
418 47 4 86 7 87 8 4 4 129 -2 220 -9z m38 -860 c152 -34 277 -91 405 -184
102 -74 173 -148 187 -193 33 -111 -30 -230 -141 -263 -74 -22 -153 -2 -216
57 -91 85 -211 149 -320 172 -79 16 -191 14 -261 -4 -77 -20 -202 -89 -274
-150 -97 -83 -172 -103 -257 -71 -103 39 -157 171 -113 277 43 104 308 283
500 339 157 45 341 53 490 20z m-90 -780 c55 -24 120 -89 145 -148 95 -220
-128 -451 -354 -366 -208 77 -246 344 -68 483 67 53 190 67 277 31z"/>
</g>
</svg>
