<svg width="26" height="24" viewBox="0 0 26 24" fill="none" xmlns="http://www.w3.org/2000/svg">
<path d="M14.7008 12.9818L19.2394 15.6022C19.6199 15.8219 19.7503 16.3084 19.5306 16.6889L19.4339 16.8563C18.8084 17.9398 17.6688 18.6246 16.4185 18.6684C14.8952 18.7217 13.5902 17.5879 13.4301 16.0722L13.2063 13.9529C13.1205 13.1401 13.993 12.5732 14.7008 12.9818Z" stroke="#D1D1D1" stroke-width="2"/>
<path d="M11.2993 12.9819L6.7607 15.6023C6.38022 15.8219 5.8937 15.6916 5.67403 15.3111L5.57733 15.1436C4.95179 14.0601 4.92852 12.7308 5.51577 11.6261C6.2312 10.2803 7.86566 9.71699 9.25835 10.3363L11.2056 11.2021C11.9524 11.5342 12.0071 12.5732 11.2993 12.9819Z" stroke="#D1D1D1" stroke-width="2"/>
<path d="M13 10.0362V4.79549C13 4.35616 13.3562 4 13.7955 4H13.9889C15.24 4 16.4028 4.6445 17.0659 5.70541C17.8737 6.99791 17.5443 8.69505 16.3117 9.59153L14.5882 10.845C13.9272 11.3257 13 10.8535 13 10.0362Z" stroke="#D1D1D1" stroke-width="2"/>
</svg>
