<svg width="25" height="25" viewBox="0 0 25 25" fill="none" xmlns="http://www.w3.org/2000/svg">
<path d="M19.1699 2.5H17.2699C15.0899 2.5 13.9399 3.65 13.9399 5.83V7.73C13.9399 9.91 15.0899 11.06 17.2699 11.06H19.1699C21.3499 11.06 22.4999 9.91 22.4999 7.73V5.83C22.4999 3.65 21.3499 2.5 19.1699 2.5Z" fill="#BDBDBD"/>
<path d="M7.74 13.93H5.84C3.65 13.93 2.5 15.08 2.5 17.26V19.16C2.5 21.35 3.65 22.5 5.83 22.5H7.73C9.91 22.5 11.06 21.35 11.06 19.17V17.27C11.07 15.08 9.92 13.93 7.74 13.93Z" fill="#BDBDBD"/>
<path d="M6.79 11.08C9.1593 11.08 11.08 9.1593 11.08 6.79C11.08 4.4207 9.1593 2.5 6.79 2.5C4.4207 2.5 2.5 4.4207 2.5 6.79C2.5 9.1593 4.4207 11.08 6.79 11.08Z" fill="#BDBDBD"/>
<path d="M18.21 22.5C20.5793 22.5 22.5 20.5793 22.5 18.21C22.5 15.8407 20.5793 13.92 18.21 13.92C15.8407 13.92 13.92 15.8407 13.92 18.21C13.92 20.5793 15.8407 22.5 18.21 22.5Z" fill="#BDBDBD"/>
</svg>
