<svg width="14" height="14" viewBox="0 0 14 14" fill="none" xmlns="http://www.w3.org/2000/svg">
<path fill-rule="evenodd" clip-rule="evenodd" d="M8.00001 1C8.00001 0.447715 7.55229 0 7.00001 0C6.44772 0 6.00001 0.447715 6.00001 1V4C6.00001 4.55229 6.44772 5 7.00001 5C7.55229 5 8.00001 4.55228 8.00001 4V1ZM11.9497 2.05025C11.5592 1.65973 10.9261 1.65973 10.5355 2.05025C10.145 2.44078 10.145 3.07394 10.5355 3.46447C11.2348 4.16373 11.711 5.05464 11.9039 6.02455C12.0969 6.99445 11.9978 7.99979 11.6194 8.91342C11.241 9.82705 10.6001 10.6079 9.77785 11.1573C8.95561 11.7068 7.98891 12 7 12C6.0111 12 5.0444 11.7068 4.22215 11.1573C3.39991 10.6079 2.75904 9.82705 2.38061 8.91342C2.00217 7.99979 1.90315 6.99445 2.09608 6.02455C2.289 5.05464 2.76521 4.16373 3.46447 3.46447C3.85499 3.07394 3.85499 2.44078 3.46447 2.05025C3.07394 1.65973 2.44078 1.65973 2.05026 2.05025C1.07129 3.02922 0.404603 4.2765 0.134506 5.63437C-0.13559 6.99224 0.0030331 8.3997 0.532847 9.67878C1.06266 10.9579 1.95987 12.0511 3.11101 12.8203C4.26216 13.5895 5.61553 14 7 14C8.38447 14 9.73785 13.5895 10.889 12.8203C12.0401 12.0511 12.9373 10.9579 13.4672 9.67878C13.997 8.3997 14.1356 6.99223 13.8655 5.63437C13.5954 4.2765 12.9287 3.02922 11.9497 2.05025Z" fill="white"/>
</svg>
