<svg width="32" height="32" viewBox="0 0 32 32" fill="none" xmlns="http://www.w3.org/2000/svg">
<circle cx="16" cy="16" r="15.5" fill="white" stroke="#F1F1F1"/>
<path fill-rule="evenodd" clip-rule="evenodd" d="M19.8858 20.7303L19.8858 20.7304C19.7565 21.0318 19.6372 21.3372 19.5281 21.6459C17.2312 22.3574 14.7687 22.3573 12.4719 21.6458C12.3627 21.3371 12.2435 21.0318 12.1142 20.7304L12.1142 20.7303C12.0108 20.4893 11.9591 20.3687 11.8727 20.2616C11.7863 20.1544 11.6463 20.0548 11.3664 19.8556L11.3664 19.8556C9.32895 18.4055 8 16.0246 8 13.3333C8 8.91506 11.5817 5.33333 16 5.33333C20.4183 5.33333 24 8.91506 24 13.3333C24 16.0246 22.6711 18.4055 20.6336 19.8556C20.3537 20.0548 20.2137 20.1544 20.1273 20.2616C20.0409 20.3687 19.9892 20.4893 19.8858 20.7303ZM13.0711 23.8682C13.1844 24.4676 13.2615 25.0747 13.3014 25.6859C13.3265 26.0717 13.3391 26.2646 13.3952 26.4085C13.4506 26.5508 13.5212 26.6571 13.6308 26.7634C13.7417 26.8708 13.8982 26.9491 14.2111 27.1056C15.3373 27.6686 16.6627 27.6686 17.7889 27.1056L17.7889 27.1056C18.1018 26.9491 18.2583 26.8708 18.3692 26.7634C18.4788 26.6571 18.5494 26.5508 18.6048 26.4084C18.6609 26.2646 18.6735 26.0717 18.6986 25.6859C18.7385 25.0747 18.8156 24.4677 18.9289 23.8683C16.9991 24.2832 15.0009 24.2832 13.0711 23.8682Z" fill="#F1F1F1"/>
</svg>
