<svg width="98" height="13" viewBox="0 0 98 13" fill="none" xmlns="http://www.w3.org/2000/svg">
<path d="M11.4467 3.888V3.824C11.4467 2.16 10.0867 0.799999 8.42269 0.799999H3.87869C2.21469 0.799999 0.870688 2.16 0.870688 3.824V3.888C0.870688 4.528 1.06269 5.12 1.39869 5.6C1.51069 5.776 1.63869 5.936 1.78269 6.08C2.32669 6.608 3.06269 6.928 3.87869 6.928H7.91069C8.75869 6.928 9.46269 7.616 9.46269 8.464C9.46269 9.312 8.75869 10 7.91069 10H4.40669C3.55869 10 2.87069 9.312 2.87069 8.464H0.870688C0.870688 10.416 2.45469 12 4.40669 12H7.91069C9.86269 12 11.4467 10.416 11.4467 8.464C11.4467 7.616 11.1427 6.832 10.6467 6.224C10.5987 6.176 10.5667 6.128 10.5187 6.08C9.87869 5.376 8.95069 4.928 7.91069 4.928H3.87869C3.31869 4.928 2.85469 4.464 2.85469 3.904V3.84C2.85469 3.28 3.31869 2.816 3.87869 2.816H8.42269C8.98269 2.816 9.44669 3.28 9.44669 3.84V3.904L11.4467 3.888ZM16.0662 2.8H24.2422V0.799999H16.0662C14.4022 0.799999 13.0582 2.16 13.0582 3.824V8.976C13.0582 10.64 14.4022 12 16.0662 12H24.2422V10H16.0662C15.5062 10 15.0422 9.536 15.0422 8.976V6.864H22.2422V4.864H15.0422V3.824C15.0422 3.264 15.5062 2.8 16.0662 2.8ZM35.0391 0.799999V7.936L27.8391 2.384L25.8391 0.848V12.016H27.8391V4.928L35.0391 10.48L37.0391 12.016V0.815999L35.0391 0.799999ZM47.1799 0.799999L46.1559 2.8L43.7079 7.6L41.2599 2.8L40.2359 0.799999H37.9959L39.0199 2.8L43.7079 12L48.3959 2.8L49.4199 0.799999H47.1799ZM52.7224 2.8H60.8984V0.799999H52.7224C51.0584 0.799999 49.7144 2.16 49.7144 3.824V8.976C49.7144 10.64 51.0584 12 52.7224 12H60.8984V10H52.7224C52.1624 10 51.6984 9.536 51.6984 8.976V6.864H58.8984V4.864H51.6984V3.824C51.6984 3.264 52.1624 2.8 52.7224 2.8ZM65.5193 2.8H73.6953V0.799999H65.5193C63.8553 0.799999 62.5113 2.16 62.5113 3.824V8.976C62.5113 10.64 63.8553 12 65.5193 12H73.6953V10H65.5193C64.9593 10 64.4953 9.536 64.4953 8.976V6.864H71.6953V4.864H64.4953V3.824C64.4953 3.264 64.9593 2.8 65.5193 2.8ZM82.7322 6.832C83.0362 6.8 83.3242 6.72 83.5962 6.592C84.6362 6.112 85.3562 5.056 85.3562 3.84C85.3562 3.008 85.0202 2.256 84.4762 1.696C83.9322 1.152 83.1802 0.815999 82.3482 0.815999H75.2762V12.016H77.2762V6.864H79.2762C79.9962 6.864 80.6202 7.248 80.9722 7.824L81.0202 7.92L82.0922 10.016L83.1162 12.016H85.3562L84.3322 10.016L82.7322 6.832ZM77.2762 4.88V2.816H82.3482C82.7002 2.816 82.9402 2.976 83.0682 3.104C83.1802 3.216 83.3722 3.472 83.3722 3.84C83.3722 4.24 83.1322 4.608 82.7642 4.768C82.6362 4.832 82.4922 4.864 82.3482 4.864L77.2762 4.88ZM96.7557 10L92.0677 0.799999L87.3797 10L86.3557 12H88.5957L89.6197 10L92.0677 5.2L94.5157 10L95.5397 12H97.7797L96.7557 10Z" fill="#7B61FF"/>
</svg>
