<svg width="25" height="25" viewBox="0 0 25 25" fill="none" xmlns="http://www.w3.org/2000/svg">
<path d="M21.6933 8.87L14.7633 3.33C13.6933 2.47 11.9633 2.47 10.9033 3.32L3.97334 8.87C3.19334 9.49 2.69334 10.8 2.86334 11.78L4.19334 19.74C4.43334 21.16 5.79334 22.31 7.23334 22.31H18.4333C19.8633 22.31 21.2333 21.15 21.4733 19.74L22.8033 11.78C22.9633 10.8 22.4633 9.49 21.6933 8.87ZM13.5433 17.7C13.3433 17.9 13.0933 18 12.8333 18C12.5733 18 12.3233 17.9 12.1233 17.71C11.7333 17.32 11.7333 16.69 12.1233 16.3C12.5133 15.91 13.1533 15.91 13.5433 16.3C13.9333 16.68 13.9333 17.31 13.5433 17.7ZM15.4933 15.4C15.3433 15.55 15.1533 15.63 14.9533 15.63C14.7633 15.63 14.5833 15.56 14.4333 15.42C13.4633 14.49 12.2033 14.49 11.2233 15.42C10.9233 15.71 10.4533 15.7 10.1633 15.4C9.87334 15.1 9.88334 14.63 10.1833 14.34C11.7333 12.85 13.9033 12.85 15.4633 14.34C15.7733 14.62 15.7833 15.1 15.4933 15.4ZM17.6133 13.28C17.4633 13.43 17.2733 13.51 17.0733 13.51C16.8833 13.51 16.6933 13.44 16.5533 13.3C16.0833 12.84 15.5533 12.47 14.9933 12.2C13.5933 11.53 12.0633 11.53 10.6733 12.2C10.1133 12.47 9.59334 12.84 9.11334 13.3C8.82334 13.59 8.34334 13.59 8.05334 13.29C7.76334 12.99 7.77334 12.52 8.06334 12.23C8.65334 11.65 9.31334 11.19 10.0233 10.85C11.8333 9.98 13.8333 9.98 15.6333 10.85C16.3433 11.19 17.0033 11.65 17.5933 12.23C17.8933 12.51 17.9033 12.99 17.6133 13.28Z" fill="#BDBDBD"/>
</svg>
