<svg width="24" height="24" viewBox="0 0 24 24" fill="none" xmlns="http://www.w3.org/2000/svg">
<path fill-rule="evenodd" clip-rule="evenodd" d="M13 6C13 5.44772 12.5523 5 12 5C11.4477 5 11 5.44772 11 6V9C11 9.55229 11.4477 10 12 10C12.5523 10 13 9.55228 13 9V6ZM16.9497 7.05025C16.5592 6.65973 15.9261 6.65973 15.5355 7.05025C15.145 7.44078 15.145 8.07394 15.5355 8.46447C16.2348 9.16373 16.711 10.0546 16.9039 11.0245C17.0969 11.9945 16.9978 12.9998 16.6194 13.9134C16.241 14.827 15.6001 15.6079 14.7779 16.1573C13.9556 16.7068 12.9889 17 12 17C11.0111 17 10.0444 16.7068 9.22215 16.1573C8.39991 15.6079 7.75904 14.827 7.38061 13.9134C7.00217 12.9998 6.90315 11.9945 7.09608 11.0245C7.289 10.0546 7.76521 9.16373 8.46447 8.46447C8.85499 8.07394 8.85499 7.44078 8.46447 7.05025C8.07394 6.65973 7.44078 6.65973 7.05026 7.05025C6.07129 8.02922 5.4046 9.2765 5.13451 10.6344C4.86441 11.9922 5.00303 13.3997 5.53285 14.6788C6.06266 15.9579 6.95987 17.0511 8.11101 17.8203C9.26216 18.5895 10.6155 19 12 19C13.3845 19 14.7379 18.5895 15.889 17.8203C17.0401 17.0511 17.9373 15.9579 18.4672 14.6788C18.997 13.3997 19.1356 11.9922 18.8655 10.6344C18.5954 9.2765 17.9287 8.02922 16.9497 7.05025Z" fill="#D1D1D1"/>
<circle cx="12" cy="12" r="11.5" stroke="#F1F1F1"/>
</svg>
