<svg width="25" height="25" viewBox="0 0 25 25" fill="none" xmlns="http://www.w3.org/2000/svg">
<path d="M8.95667 6.79C8.53667 6.79 8.20667 6.45 8.20667 6.04V3.25C8.20667 2.84 8.53667 2.5 8.95667 2.5C9.37666 2.5 9.70667 2.84 9.70667 3.25V6.03C9.70667 6.45 9.37666 6.79 8.95667 6.79Z" fill="#BDBDBD"/>
<path d="M16.3767 6.79C15.9567 6.79 15.6267 6.45 15.6267 6.04V3.25C15.6267 2.83 15.9667 2.5 16.3767 2.5C16.7967 2.5 17.1267 2.84 17.1267 3.25V6.03C17.1267 6.45 16.7967 6.79 16.3767 6.79Z" fill="#BDBDBD"/>
<path d="M20.2367 5C19.5767 4.51 18.6267 4.98 18.6267 5.81V5.91C18.6267 7.08 17.7867 8.16 16.6167 8.28C15.2667 8.42 14.1267 7.36 14.1267 6.04V5C14.1267 4.45 13.6767 4 13.1267 4H12.2067C11.6567 4 11.2067 4.45 11.2067 5V6.04C11.2067 6.83 10.7967 7.53 10.1767 7.92C10.0867 7.98 9.98667 8.03 9.88667 8.08C9.79667 8.13 9.69667 8.17 9.58667 8.2C9.46667 8.24 9.33667 8.27 9.19667 8.28C9.03667 8.3 8.87667 8.3 8.71667 8.28C8.57667 8.27 8.44667 8.24 8.32667 8.2C8.22667 8.17 8.12667 8.13 8.02667 8.08C7.92667 8.03 7.82667 7.98 7.73667 7.92C7.10667 7.48 6.70667 6.72 6.70667 5.91V5.81C6.70667 5.04 5.88667 4.58 5.23667 4.91C5.22667 4.92 5.21667 4.92 5.20667 4.93C5.16667 4.95 5.13667 4.97 5.09667 5C5.06667 5.03 5.02667 5.05 4.99667 5.08C4.71667 5.3 4.46667 5.55 4.25667 5.82C4.14667 5.94 4.05667 6.07 3.97667 6.2C3.96667 6.21 3.95667 6.22 3.94667 6.24C3.85667 6.37 3.77667 6.52 3.70667 6.66C3.68667 6.68 3.67667 6.69 3.67667 6.71C3.61667 6.83 3.55667 6.95 3.51667 7.08C3.48667 7.13 3.47667 7.17 3.45667 7.22C3.39667 7.37 3.35667 7.52 3.31667 7.67C3.27667 7.81 3.24667 7.96 3.22667 8.11C3.20667 8.22 3.19667 8.33 3.18667 8.45C3.17667 8.59 3.16667 8.73 3.16667 8.87V17.63C3.16667 20.32 5.34667 22.5 8.03667 22.5H17.2967C19.9867 22.5 22.1667 20.32 22.1667 17.63V8.87C22.1667 7.28 21.4067 5.89 20.2367 5ZM12.6667 17.92H8.02667C7.61667 17.92 7.27667 17.58 7.27667 17.17C7.27667 16.75 7.61667 16.41 8.02667 16.41H12.6667C13.0867 16.41 13.4167 16.75 13.4167 17.17C13.4167 17.58 13.0867 17.92 12.6667 17.92ZM15.4467 14.21H8.02667C7.61667 14.21 7.27667 13.87 7.27667 13.46C7.27667 13.04 7.61667 12.7 8.02667 12.7H15.4467C15.8667 12.7 16.2067 13.04 16.2067 13.46C16.2067 13.87 15.8667 14.21 15.4467 14.21Z" fill="#BDBDBD"/>
</svg>
