<svg width="24" height="25" viewBox="0 0 24 25" fill="none" xmlns="http://www.w3.org/2000/svg">
<path d="M20.1 9.72C18.29 9.72 17.55 8.44 18.45 6.87C18.97 5.96 18.66 4.8 17.75 4.28L16.02 3.29C15.23 2.82 14.21 3.1 13.74 3.89L13.63 4.08C12.73 5.65 11.25 5.65 10.34 4.08L10.23 3.89C9.78 3.1 8.76 2.82 7.97 3.29L6.24 4.28C5.33 4.8 5.02 5.97 5.54 6.88C6.45 8.44 5.71 9.72 3.9 9.72C2.86 9.72 2 10.57 2 11.62V13.38C2 14.42 2.85 15.28 3.9 15.28C5.71 15.28 6.45 16.56 5.54 18.13C5.02 19.04 5.33 20.2 6.24 20.72L7.97 21.71C8.76 22.18 9.78 21.9 10.25 21.11L10.36 20.92C11.26 19.35 12.74 19.35 13.65 20.92L13.76 21.11C14.23 21.9 15.25 22.18 16.04 21.71L17.77 20.72C18.68 20.2 18.99 19.03 18.47 18.13C17.56 16.56 18.3 15.28 20.11 15.28C21.15 15.28 22.01 14.43 22.01 13.38V11.62C22 10.58 21.15 9.72 20.1 9.72ZM12 15.75C10.21 15.75 8.75 14.29 8.75 12.5C8.75 10.71 10.21 9.25 12 9.25C13.79 9.25 15.25 10.71 15.25 12.5C15.25 14.29 13.79 15.75 12 15.75Z" fill="#BDBDBD"/>
</svg>
