<svg width="20" height="21" viewBox="0 0 20 21" fill="none" xmlns="http://www.w3.org/2000/svg">
<path d="M10.8333 13.2333V9.25C10.8333 9.02899 10.7455 8.81703 10.5893 8.66075C10.433 8.50447 10.221 8.41667 10 8.41667C9.77899 8.41667 9.56703 8.50447 9.41075 8.66075C9.25447 8.81703 9.16667 9.02899 9.16667 9.25V13.2333C8.91477 13.3788 8.70532 13.5876 8.55913 13.839C8.41293 14.0905 8.33509 14.3758 8.33334 14.6667C8.33334 15.1087 8.50893 15.5326 8.82149 15.8452C9.13405 16.1577 9.55797 16.3333 10 16.3333C10.442 16.3333 10.866 16.1577 11.1785 15.8452C11.4911 15.5326 11.6667 15.1087 11.6667 14.6667C11.6649 14.3758 11.5871 14.0905 11.4409 13.839C11.2947 13.5876 11.0852 13.3788 10.8333 13.2333ZM13.75 11.3333V5.08334C13.75 4.08877 13.3549 3.13495 12.6517 2.43169C11.9484 1.72842 10.9946 1.33334 10 1.33334C9.00544 1.33334 8.05161 1.72842 7.34835 2.43169C6.64509 3.13495 6.25 4.08877 6.25 5.08334V11.3333C5.67404 11.986 5.27844 12.7777 5.10235 13.6302C4.92625 14.4827 4.97576 15.3663 5.24596 16.1938C5.51617 17.0213 5.99773 17.7639 6.64298 18.3481C7.28824 18.9324 8.07485 19.338 8.925 19.525C9.27816 19.6055 9.63805 19.6529 10 19.6667C10.9672 19.6712 11.9149 19.3951 12.7283 18.8718C13.5418 18.3485 14.186 17.6006 14.5829 16.7185C14.9798 15.8365 15.1124 14.8583 14.9645 13.9025C14.8167 12.9467 14.3948 12.0542 13.75 11.3333ZM12.0833 17.225C11.4203 17.8129 10.5509 18.1133 9.66632 18.0602C8.78178 18.0071 7.95457 17.6047 7.36667 16.9417C6.77877 16.2786 6.47835 15.4092 6.53148 14.5247C6.58462 13.6401 6.98696 12.8129 7.65 12.225C7.72874 12.1478 7.79138 12.0558 7.8343 11.9542C7.87721 11.8527 7.89954 11.7436 7.9 11.6333V5.08334C7.9 4.5308 8.1195 4.0009 8.5102 3.6102C8.9009 3.2195 9.4308 3 9.98334 3C10.5359 3 11.0658 3.2195 11.4565 3.6102C11.8472 4.0009 12.0667 4.5308 12.0667 5.08334V11.7C12.0671 11.8103 12.0895 11.9193 12.1324 12.0209C12.1753 12.1225 12.2379 12.2145 12.3167 12.2917C12.6573 12.6207 12.9239 13.0186 13.0987 13.4588C13.2735 13.899 13.3525 14.3713 13.3304 14.8444C13.3083 15.3175 13.1857 15.7805 12.9706 16.2025C12.7556 16.6244 12.4531 16.9958 12.0833 17.2917V17.225Z" fill="#9A9A9A"/>
</svg>
