<svg width="25" height="24" viewBox="0 0 25 24" fill="none" xmlns="http://www.w3.org/2000/svg">
<circle cx="12.5" cy="12" r="11.5" stroke="#F1F1F1"/>
<path d="M14.2007 11.0181L18.7393 8.39775C19.1198 8.17808 19.6063 8.30844 19.826 8.68892L19.9227 8.85641C20.5482 9.93988 20.5715 11.2692 19.9842 12.3739C19.2688 13.7197 17.6343 14.283 16.2416 13.6637L14.2944 12.7979C13.5476 12.4658 13.4929 11.4268 14.2007 11.0181Z" stroke="#D1D1D1"/>
<path d="M12.5 13.9638V19.2045C12.5 19.6438 12.1438 20 11.7045 20H11.5111C10.26 20 9.09719 19.3555 8.43412 18.2946C7.62631 17.0021 7.95569 15.305 9.18835 14.4085L10.9118 13.155C11.5728 12.6743 12.5 13.1465 12.5 13.9638Z" stroke="#D1D1D1"/>
<path d="M14.2008 12.9818L18.7394 15.6022C19.1198 15.8218 19.2502 16.3083 19.0305 16.6888L18.9338 16.8563C18.3083 17.9398 17.1687 18.6246 15.9184 18.6684C14.3952 18.7217 13.0901 17.5879 12.9301 16.0721L12.7063 13.9528C12.6205 13.1401 13.493 12.5731 14.2008 12.9818Z" stroke="#D1D1D1"/>
<path d="M10.7993 12.9819L6.2607 15.6023C5.88022 15.8219 5.3937 15.6916 5.17403 15.3111L5.07733 15.1436C4.45179 14.0601 4.42852 12.7308 5.01577 11.6261C5.7312 10.2803 7.36566 9.71699 8.75835 10.3363L10.7056 11.2021C11.4524 11.5342 11.5071 12.5732 10.7993 12.9819Z" stroke="#D1D1D1"/>
<path d="M10.7991 11.018L6.26045 8.39764C5.87997 8.17797 5.74961 7.69145 5.96928 7.31097L6.06598 7.14348C6.69152 6.06002 7.83109 5.37522 9.08141 5.33144C10.6046 5.27811 11.9097 6.41193 12.0698 7.92768L12.2935 10.047C12.3794 10.8597 11.5069 11.4267 10.7991 11.018Z" stroke="#D1D1D1"/>
<path d="M12.5 10.0362V4.79549C12.5 4.35616 12.8562 4 13.2955 4H13.4889C14.74 4 15.9028 4.6445 16.5659 5.70541C17.3737 6.99791 17.0443 8.69505 15.8117 9.59153L14.0882 10.845C13.4272 11.3257 12.5 10.8535 12.5 10.0362Z" stroke="#D1D1D1"/>
</svg>
